<mxfile host="Electron" agent="Mozilla/5.0 (X11; Linux x86_64) AppleWebKit/537.36 (KHTML, like Gecko) draw.io/27.0.9 Chrome/134.0.6998.205 Electron/35.4.0 Safari/537.36" version="27.0.9">
  <diagram name="Page-1" id="IGh_VWe63DxR-wVfDy-j">
    <mxGraphModel dx="786" dy="563" grid="1" gridSize="10" guides="1" tooltips="1" connect="1" arrows="1" fold="1" page="1" pageScale="1" pageWidth="1654" pageHeight="1169" math="0" shadow="0">
      <root>
        <mxCell id="0" />
        <mxCell id="1" parent="0" />
        <mxCell id="AUwmmm82cEos5W32ENzg-5" style="edgeStyle=orthogonalEdgeStyle;rounded=0;orthogonalLoop=1;jettySize=auto;html=1;exitX=1;exitY=0.5;exitDx=0;exitDy=0;entryX=0;entryY=0.5;entryDx=0;entryDy=0;shape=flexArrow;" parent="1" source="AUwmmm82cEos5W32ENzg-1" target="AUwmmm82cEos5W32ENzg-8" edge="1">
          <mxGeometry relative="1" as="geometry" />
        </mxCell>
        <mxCell id="AUwmmm82cEos5W32ENzg-1" value="Inicio" style="rounded=1;whiteSpace=wrap;html=1;absoluteArcSize=1;arcSize=14;strokeWidth=2;" parent="1" vertex="1">
          <mxGeometry x="70" y="30" width="90" height="50" as="geometry" />
        </mxCell>
        <mxCell id="AUwmmm82cEos5W32ENzg-7" style="edgeStyle=orthogonalEdgeStyle;shape=flexArrow;rounded=0;orthogonalLoop=1;jettySize=auto;html=1;exitX=1;exitY=0.5;exitDx=0;exitDy=0;entryX=0;entryY=0.5;entryDx=0;entryDy=0;strokeColor=default;align=center;verticalAlign=middle;fontFamily=Helvetica;fontSize=11;fontColor=default;labelBackgroundColor=default;endArrow=classic;" parent="1" source="AUwmmm82cEos5W32ENzg-4" target="AUwmmm82cEos5W32ENzg-6" edge="1">
          <mxGeometry relative="1" as="geometry" />
        </mxCell>
        <mxCell id="AUwmmm82cEos5W32ENzg-4" value="Se inicializa Wifi Soft Ap emitiendo una red a la cual el usuario se puede conectar al ESP32" style="rounded=1;whiteSpace=wrap;html=1;absoluteArcSize=1;arcSize=14;strokeWidth=2;" parent="1" vertex="1">
          <mxGeometry x="530" y="15" width="122.5" height="80" as="geometry" />
        </mxCell>
        <mxCell id="AUwmmm82cEos5W32ENzg-6" value="Se inicializa servidor web" style="rounded=1;whiteSpace=wrap;html=1;absoluteArcSize=1;arcSize=14;strokeWidth=2;" parent="1" vertex="1">
          <mxGeometry x="750" y="25" width="100" height="60" as="geometry" />
        </mxCell>
        <mxCell id="AUwmmm82cEos5W32ENzg-9" style="edgeStyle=orthogonalEdgeStyle;shape=flexArrow;rounded=0;orthogonalLoop=1;jettySize=auto;html=1;exitX=1;exitY=0.5;exitDx=0;exitDy=0;entryX=0;entryY=0.5;entryDx=0;entryDy=0;strokeColor=default;align=center;verticalAlign=middle;fontFamily=Helvetica;fontSize=11;fontColor=default;labelBackgroundColor=default;endArrow=classic;" parent="1" source="AUwmmm82cEos5W32ENzg-8" target="AUwmmm82cEos5W32ENzg-4" edge="1">
          <mxGeometry relative="1" as="geometry" />
        </mxCell>
        <mxCell id="AUwmmm82cEos5W32ENzg-8" value="Se aplica la configuración almacenada a los pines" style="rounded=1;whiteSpace=wrap;html=1;absoluteArcSize=1;arcSize=14;strokeWidth=2;" parent="1" vertex="1">
          <mxGeometry x="260" y="30" width="140" height="50" as="geometry" />
        </mxCell>
        <mxCell id="AUwmmm82cEos5W32ENzg-14" style="edgeStyle=orthogonalEdgeStyle;shape=flexArrow;rounded=0;orthogonalLoop=1;jettySize=auto;html=1;exitX=1;exitY=0.5;exitDx=0;exitDy=0;entryX=0;entryY=0.5;entryDx=0;entryDy=0;entryPerimeter=0;strokeColor=default;align=center;verticalAlign=middle;fontFamily=Helvetica;fontSize=11;fontColor=default;labelBackgroundColor=default;endArrow=classic;" parent="1" source="AUwmmm82cEos5W32ENzg-6" target="AUwmmm82cEos5W32ENzg-27" edge="1">
          <mxGeometry relative="1" as="geometry">
            <mxPoint x="960" y="85" as="targetPoint" />
          </mxGeometry>
        </mxCell>
        <mxCell id="AUwmmm82cEos5W32ENzg-15" value="Configuración almacenada" style="shape=parallelogram;html=1;strokeWidth=2;perimeter=parallelogramPerimeter;whiteSpace=wrap;rounded=1;arcSize=12;size=0.23;fontFamily=Helvetica;fontSize=11;fontColor=default;labelBackgroundColor=none;" parent="1" vertex="1">
          <mxGeometry x="260" y="160" width="110" height="60" as="geometry" />
        </mxCell>
        <mxCell id="AUwmmm82cEos5W32ENzg-22" value="Acceso a Flash" style="labelPosition=right;align=left;shape=mxgraph.electrical.signal_sources.voltage;shadow=0;dashed=0;strokeWidth=1;fontSize=10;html=1;fontFamily=Helvetica;fontColor=default;labelBackgroundColor=default;" parent="1" vertex="1">
          <mxGeometry x="320" y="80" width="10" height="70" as="geometry" />
        </mxCell>
        <mxCell id="AUwmmm82cEos5W32ENzg-23" value="" style="sketch=0;pointerEvents=1;shadow=0;dashed=0;html=1;strokeColor=none;fillColor=#434445;aspect=fixed;labelPosition=center;verticalLabelPosition=bottom;verticalAlign=top;align=center;outlineConnect=0;shape=mxgraph.vvd.wi_fi;fontFamily=Helvetica;fontSize=11;fontColor=default;labelBackgroundColor=default;" parent="1" vertex="1">
          <mxGeometry x="580" y="165" width="50" height="50" as="geometry" />
        </mxCell>
        <mxCell id="AUwmmm82cEos5W32ENzg-24" value="Conexión antena&lt;div&gt;del ESP32&lt;/div&gt;" style="labelPosition=right;align=left;shape=mxgraph.electrical.signal_sources.voltage;shadow=0;dashed=0;strokeWidth=1;fontSize=10;html=1;fontFamily=Helvetica;fontColor=default;labelBackgroundColor=default;" parent="1" vertex="1">
          <mxGeometry x="586" y="95" width="10" height="70" as="geometry" />
        </mxCell>
        <mxCell id="AUwmmm82cEos5W32ENzg-29" style="edgeStyle=orthogonalEdgeStyle;shape=flexArrow;rounded=0;orthogonalLoop=1;jettySize=auto;html=1;exitX=1;exitY=0.5;exitDx=0;exitDy=0;exitPerimeter=0;entryX=0;entryY=0.5;entryDx=0;entryDy=0;strokeColor=default;align=center;verticalAlign=middle;fontFamily=Helvetica;fontSize=11;fontColor=default;labelBackgroundColor=default;endArrow=classic;" parent="1" source="AUwmmm82cEos5W32ENzg-27" target="AUwmmm82cEos5W32ENzg-28" edge="1">
          <mxGeometry relative="1" as="geometry" />
        </mxCell>
        <mxCell id="AUwmmm82cEos5W32ENzg-27" value="A la espera de conexion de usuario" style="strokeWidth=2;html=1;shape=mxgraph.flowchart.delay;whiteSpace=wrap;fontFamily=Helvetica;fontSize=11;fontColor=default;labelBackgroundColor=none;" parent="1" vertex="1">
          <mxGeometry x="930" y="25" width="110" height="60" as="geometry" />
        </mxCell>
        <mxCell id="AUwmmm82cEos5W32ENzg-28" value="Usuario se conecta y es redirigido a web interna del ESP por captura de DNS" style="rounded=1;whiteSpace=wrap;html=1;absoluteArcSize=1;arcSize=14;strokeWidth=2;" parent="1" vertex="1">
          <mxGeometry x="1160" y="22.5" width="120" height="65" as="geometry" />
        </mxCell>
        <mxCell id="AUwmmm82cEos5W32ENzg-31" value="Web root" style="sketch=0;pointerEvents=1;shadow=0;dashed=0;html=1;strokeColor=none;fillColor=#505050;labelPosition=center;verticalLabelPosition=bottom;verticalAlign=top;outlineConnect=0;align=center;shape=mxgraph.office.concepts.web_page;fontFamily=Helvetica;fontSize=11;fontColor=default;labelBackgroundColor=default;" parent="1" vertex="1">
          <mxGeometry x="1195" y="150" width="50" height="54" as="geometry" />
        </mxCell>
      </root>
    </mxGraphModel>
  </diagram>
</mxfile>
